<?xml version="1.0" encoding="utf-8"?>
<!-- Generator: Adobe Illustrator 21.1.0, SVG Export Plug-In . SVG Version: 6.00 Build 0)  -->
<svg version="1.1" id="Capa_1" xmlns="http://www.w3.org/2000/svg" xmlns:xlink="http://www.w3.org/1999/xlink" x="0px" y="0px"
	 viewBox="0 0 612 612" style="enable-background:new 0 0 612 612;" xml:space="preserve">
<style type="text/css">
	.st0{opacity:0.7;fill:#FFFFFF;enable-background:new    ;}
</style>
<path class="st0" d="M210.4,200.7c0,8.4,3.7,15.9,9.4,21.1l-0.1,0.1l91.7,84.1l-91.7,84l0.1,0.1c-5.8,5.3-9.4,12.7-9.4,21.1
	c0,15.8,12.9,28.7,28.7,28.7c7.4,0,14.2-2.9,19.3-7.6l0.1,0.1l114.8-105.2c5.9-5.5,9.3-13.1,9.3-21.2s-3.4-15.7-9.3-21.2
	L258.6,179.6l-0.1,0.1c-5.1-4.7-11.8-7.6-19.3-7.6C223.4,172.1,210.5,185,210.4,200.7z"/>
</svg>
