<?xml version="1.0" encoding="utf-8"?>
<!-- Generator: Adobe Illustrator 21.1.0, SVG Export Plug-In . SVG Version: 6.00 Build 0)  -->
<svg version="1.1" id="Layer_1" xmlns="http://www.w3.org/2000/svg" xmlns:xlink="http://www.w3.org/1999/xlink" x="0px" y="0px"
	 viewBox="0 0 592.7 108.7" style="enable-background:new 0 0 592.7 108.7;" xml:space="preserve">
<style type="text/css">
	.st0{fill:none;stroke:#FFE600;stroke-width:2.1806;stroke-miterlimit:10;}
	.st1{fill:#FFE600;}
</style>
<g>
	
		<image style="overflow:visible;opacity:0.8;" width="539" height="21" xlink:href="487FA802.png"  transform="matrix(1 0 0 1 6.4961 43.1961)">
	</image>
	<g>
		<g>
			<line class="st0" x1="15" y1="53.4" x2="535.1" y2="53.4"/>
		</g>
	</g>
</g>
<g>
	
		<image style="overflow:visible;opacity:0.8;" width="121" height="124" xlink:href="487FA805.png"  transform="matrix(1 0 0 1 475.9921 -8.3079)">
	</image>
	<g>
		<g>
			<g>
				<path class="st1" d="M534.4,55.7c-4,3.8-7.7,7.2-11.4,10.7c-0.1-0.1-0.1-0.1-0.2-0.2c3.5-3.7,6.9-7.4,10.7-11.5
					c-13.6-0.4-26.8-0.8-40-1.3c0-0.1,0-0.2,0-0.3c13.2-0.4,26.4-0.8,40-1.3c-3.6-3.9-7-7.4-10.3-11c0.1-0.1,0.1-0.1,0.2-0.2
					c3.6,3.3,7.2,6.7,11,10.3c0.5-14.2,0.9-28.1,1.3-42c0.1,0,0.1,0,0.2,0c0.4,13.9,0.9,27.8,1.3,42.1c4-3.7,7.7-7.2,11.3-10.6
					c0.1,0.1,0.1,0.1,0.2,0.2c-3.4,3.7-6.9,7.3-10.7,11.3c13.9,0.4,27.4,0.8,40.9,1.3c0,0.1,0,0.2,0,0.3c-13.5,0.4-27,0.8-40.9,1.3
					c3.5,3.7,6.7,7.2,9.9,10.6c-0.1,0.1-0.1,0.1-0.2,0.2c-3.4-3.2-6.9-6.4-10.6-9.9c-0.5,14.2-0.9,28.1-1.3,42c-0.1,0-0.1,0-0.2,0
					C535.3,83.8,534.9,70,534.4,55.7z"/>
			</g>
		</g>
	</g>
</g>
</svg>
