<?xml version="1.0" encoding="utf-8"?>
<!-- Generator: Adobe Illustrator 21.1.0, SVG Export Plug-In . SVG Version: 6.00 Build 0)  -->
<svg version="1.1" id="Capa_1" xmlns="http://www.w3.org/2000/svg" xmlns:xlink="http://www.w3.org/1999/xlink" x="0px" y="0px"
	 viewBox="0 0 400 400" style="enable-background:new 0 0 400 400;" xml:space="preserve">
<style type="text/css">
	.st0{fill:none;}
	.st1{opacity:5.000000e-02;}
	.st2{fill:#FFFFFF;}
</style>
<ellipse class="st0" cx="198.4" cy="199.2" rx="186.2" ry="183.1"/>
<g class="st1">
	<path class="st2" d="M266.2,127.9c3.7-3.9,7.3-7.9,11.2-11.7c1-1,2.5-1.9,3.8-1.9c9.5-0.1,19.1-0.4,28.5,0.2
		c6,0.4,9.2,4.4,9.2,10.7c0,44.8,0,89.5-0.1,134.3c0,7.6-3.8,11-12.1,11.1c-24.8,0.1-49.5,0-74.3,0c-46.4,0-92.7,0-139.1,0
		c-11.5,0-14.1-2.7-14.1-14c0-43.1,0-86.2,0-129.3c0-9.6,3.4-13.2,13.3-13.2c42.5-0.1,85.1,0,127.6,0c1.8,0,3.6,0.4,5.5,0.6
		c-2.9,10.7-8.2,14.9-18.4,14.9c-34.9,0-69.8,0.1-104.8-0.1c-5.6,0-7.7,1.1-7.7,7.1c0.3,32.5,0.3,64.9,0,97.4c0,5.8,1.8,7.2,7.6,7.2
		c64.6-0.2,129.1-0.2,193.7,0c5.6,0,7.2-1.6,7.1-7c-0.2-32.7-0.2-65.4,0-98c0-5.1-1.4-6.9-6.8-6.7c-9.9,0.4-19.7,0.1-29.6,0.1
		C266.7,129.1,266.4,128.5,266.2,127.9z"/>
	<path class="st2" d="M284.4,97.2c-1.7,2.8-4.1,8.7-8.1,13.1c-24.5,26.7-49.4,53.1-74.2,79.6c-1.1,1.2-2.3,2.4-3.4,3.7
		c-5.7,6.7-10.4,6.5-15.5-0.9c-0.8-1.2-0.6-4.1,0.3-5.4c23.4-32.8,47-65.6,70.7-98.3c3.9-5.4,9.3-8.9,16.6-8.9
		C278.9,80.1,284.7,85.8,284.4,97.2z"/>
	<path class="st2" d="M235,302.7c-23.9,0-47.8,0-72.5,0c0.7-1.5,0.9-2.8,1.6-3.2c6.4-3.8,8.6-9.8,9.5-16.7c0.2-1.4,2.7-3.7,4.3-3.7
		c14.2-0.3,28.4-0.2,42.5-0.1c1.4,0,3.9,1.2,4,2c0.5,8.5,4.1,15.4,11.7,20.2C235.8,301.7,235.4,302.2,235,302.7z"/>
	<path class="st2" d="M141.1,218.6c1.9-0.3,3.9-0.9,5.8-0.9c6.7,0.2,10.6-3.2,12.7-9.2c0.3-0.8,0.7-1.5,0.9-2.3
		c1.7-6.2,4.6-11.6,11.8-12.1s13.1,2.9,17.4,8.5c3.9,5.3,3,10.8-2.9,13.6c-14.6,7-29.9,7.1-45.4,4.4
		C141.3,219.9,141.2,219.2,141.1,218.6z"/>
</g>
</svg>
