<?xml version="1.0" encoding="utf-8"?>
<!-- Generator: Adobe Illustrator 21.1.0, SVG Export Plug-In . SVG Version: 6.00 Build 0)  -->
<svg version="1.1" id="Capa_1" xmlns="http://www.w3.org/2000/svg" xmlns:xlink="http://www.w3.org/1999/xlink" x="0px" y="0px"
	 viewBox="0 0 792 612" style="enable-background:new 0 0 792 612;" xml:space="preserve">
<style type="text/css">
	.st0{fill:#FF0000;}
</style>
<g>
	<path class="st0" d="M96.1,301C96.2,136.4,231.7,4.2,401,5.2c158.6,1,297.3,126.5,297.3,296.1c0,165-133.6,296.3-301.8,295.9
		C224.3,596.9,96,459.4,96.1,301z M114.7,300.7C112.2,448.8,236.9,579.1,396,579.4c157.2,0.3,284.1-124.2,284.2-278.3
		c0.1-157-132.2-278-282.3-278.3C243,22.5,112.9,149.1,114.7,300.7z"/>
	<g>
		<g>
			<g>
				<path class="st0" d="M419,111.3c43.2,0,78.2,35,78.2,78.2s-35,78.2-78.2,78.2s-78.2-35-78.2-78.2S375.8,111.3,419,111.3z"/>
				<path class="st0" d="M367.8,443c8.4-3.3,19.5-11.2,19.5-11.2c7.9-5.1,10.2-15.8,5.1-23.7l-23.3-35.8c-4.7-7-14.4-11.6-23.7-5.1
					l-9.8,6.5c-6.5,3.3-14.4,0.9-18.6-5.1l-27-41.9c-4.2-6.1-2.8-15.4,2.8-19.1l10.7-6.5c7.9-5.1,10.2-15.8,5.1-23.7l-23.3-35.8
					c-5.1-7.9-15.8-10.2-23.7-5.1c0,0-12.1,7.4-18.6,14c-27.5,26.1-14.4,63.3,23.3,121C303.6,429.5,334.3,457.5,367.8,443z"/>
				<path class="st0" d="M447.4,287.2h-27.9h-27.9c-31.2,0-59.1,14.4-77.7,36.8l15.8,24.7l0.9-0.5c7-4.7,14.4-7,22.3-7
					c13.5,0,26.5,7,34,18.6l23.3,35.8c12.1,18.6,7,43.3-11.6,55.4c-2.8,1.9-14,9.8-23.7,13.5c-8.4,3.7-17.2,5.1-26.1,5.1l0,0
					c-21.4,0-40.5-10.7-57.7-27v25.6c0,0,38.2,25.1,124.7,25.1h7c78.6,0,124.7-25.1,124.7-25.1v-80.5
					C547.4,332.3,502.3,287.2,447.4,287.2z"/>
			</g>
		</g>
	</g>
</g>
</svg>
