<?xml version="1.0" encoding="utf-8"?>
<!-- Generator: Adobe Illustrator 21.1.0, SVG Export Plug-In . SVG Version: 6.00 Build 0)  -->
<svg version="1.1" id="Capa_1" xmlns="http://www.w3.org/2000/svg" xmlns:xlink="http://www.w3.org/1999/xlink" x="0px" y="0px"
	 viewBox="0 0 1201.3 600" style="enable-background:new 0 0 1201.3 600;" xml:space="preserve">
<style type="text/css">
	.st0{fill:#FFFFFF;}
	.st1{font-family:'Arial-BoldMT';}
	.st2{font-size:22.6877px;}
	.st3{fill:#FF0000;}
	.st4{fill:#040006;}
	.st5{fill:none;stroke:#FFFFFF;stroke-width:10.8264;stroke-miterlimit:10;}
	.st6{fill:#FFFFFF;stroke:#FFFFFF;stroke-width:2.6709;stroke-miterlimit:10;}
</style>
<text transform="matrix(0.9971 0 0 1 267.0811 405.6289)" class="st0 st1 st2">R</text>
<g>
	<path class="st0" d="M274.9,416c-10.1,0-18.4-8.3-18.4-18.5s8.3-18.4,18.4-18.4s18.4,8.3,18.4,18.4
		C293.3,407.7,285.1,416,274.9,416z M274.9,382.4c-8.3,0-15,6.8-15,15.1s6.7,15.1,15,15.1s15-6.8,15-15.1S283.2,382.4,274.9,382.4z"
		/>
</g>
<g>
	<polygon class="st0" points="47.5,458.4 1179.1,457.8 1179.1,459.1 	"/>
</g>
<g>
	<path class="st0" d="M598.8,427.8l5.6-23.8h8l-4.1,17.5h11.3c1.9,0,3.1-1,3.6-3.1l3.2-13.6c0.1-0.4,0.2-0.8,0.2-1.1
		c0-1.4-0.8-2-2.3-2H605l1.5-6.4h20.8c5.2,0,7.9,1.9,7.9,5.8c0,0.8-0.1,1.7-0.3,2.6l-3.8,16c-0.6,2.7-1.9,4.8-3.8,6.2
		c-1.9,1.4-4.4,2.1-7.6,2.1h-20.9V427.8z"/>
	<path class="st0" d="M634.8,427.8l7.6-32.7h8.1l-7.6,32.7H634.8z"/>
	<path class="st0" d="M648.9,427.8l1.5-6.4h19.2c0.6,0,1.1-0.1,1.4-0.3c0.3-0.2,0.5-0.6,0.7-1.3l1.1-4.5c0-0.1,0.1-0.3,0.1-0.5
		c0-0.6-0.5-0.9-1.4-0.9h-14.2c-1.5,0-2.5-0.3-3.2-0.8c-0.7-0.6-1-1.4-1-2.4c0-0.4,0.1-0.8,0.2-1.4l2-8.4c0.5-1.9,1.2-3.4,2.3-4.3
		s2.8-1.4,5.2-1.4H685l-1.4,6.2h-19.1c-0.6,0-1,0.1-1.2,0.3c-0.2,0.2-0.4,0.6-0.6,1.2l-1,4.3c0,0.1-0.1,0.2-0.1,0.3
		c0,0.1,0,0.2,0,0.3c0,0.5,0.4,0.7,1.2,0.7h14.4c1.5,0,2.6,0.3,3.2,0.9c0.7,0.6,1,1.4,1,2.4c0,0.4-0.1,0.9-0.2,1.4l-2.1,8.9
		c-0.5,1.9-1.2,3.4-2.3,4.3s-2.8,1.4-5.1,1.4L648.9,427.8L648.9,427.8z"/>
	<path class="st0" d="M683.1,427.8l5.6-23.9h8.3l-1.3,5.3H709l-1.2,5.2h-13.2l-1.6,6.9h18.3l-1.5,6.5H683.1z M689.2,401.5l1.5-6.4
		h26.7l-1.5,6.4H689.2z"/>
	<path class="st0" d="M741.7,427.8l-13.6-21.4l-5,21.4h-7.5l7.6-32.7h7.6l11.8,19.5l4.5-19.5h7.5l-7.6,32.7H741.7z"/>
	<path class="st0" d="M758.9,427.8c-1.8,0-3.1-0.3-3.9-0.9c-0.8-0.6-1.2-1.5-1.2-2.7c0-0.6,0.1-1.3,0.3-2.2l4.9-21.3
		c0.5-1.9,1.2-3.4,2.3-4.3s2.8-1.4,5.1-1.4h17.9c1.8,0,3.1,0.3,3.9,0.9c0.8,0.6,1.2,1.5,1.2,2.7c0,0.3,0,0.7-0.1,1
		c-0.1,0.4-0.1,0.7-0.2,1.1l-4.9,21.3c-0.5,1.9-1.2,3.4-2.4,4.3c-1.1,0.9-2.8,1.4-5.1,1.4h-17.8V427.8z M780.5,403.4
		c0-0.2,0.1-0.3,0.1-0.4s0-0.2,0-0.3c0-0.7-0.6-1.1-1.9-1.1h-10c-0.7,0-1.2,0.1-1.5,0.4s-0.5,0.8-0.7,1.5l-3.8,16.3
		c-0.1,0.3-0.1,0.5-0.1,0.6c0,0.7,0.5,1,1.5,1h10c0.8,0,1.5-0.1,1.8-0.4c0.4-0.3,0.6-0.7,0.7-1.3L780.5,403.4z"/>
	<path class="st0" d="M788.3,427.8l1.5-6.4H809c0.6,0,1.1-0.1,1.4-0.3c0.3-0.2,0.5-0.6,0.7-1.3l1.1-4.5c0-0.1,0.1-0.3,0.1-0.5
		c0-0.6-0.5-0.9-1.4-0.9h-14.2c-1.5,0-2.5-0.3-3.2-0.8c-0.7-0.6-1-1.4-1-2.4c0-0.4,0.1-0.8,0.2-1.4l2-8.4c0.5-1.9,1.2-3.4,2.3-4.3
		s2.8-1.4,5.2-1.4h22.3l-1.4,6.2H804c-0.6,0-1,0.1-1.2,0.3c-0.2,0.2-0.4,0.6-0.6,1.2l-1,4.3c0,0.1-0.1,0.2-0.1,0.3
		c0,0.1,0,0.2,0,0.3c0,0.5,0.4,0.7,1.2,0.7h14.4c1.5,0,2.6,0.3,3.2,0.9c0.7,0.6,1,1.4,1,2.4c0,0.4-0.1,0.9-0.2,1.4l-2.1,8.9
		c-0.5,1.9-1.2,3.4-2.3,4.3s-2.8,1.4-5.1,1.4L788.3,427.8L788.3,427.8z"/>
	<path class="st0" d="M837.4,427.8L843,404h8l-4.1,17.5h11.3c1.9,0,3.1-1,3.6-3.1l3.2-13.6c0.1-0.4,0.2-0.8,0.2-1.1
		c0-1.4-0.8-2-2.3-2h-19.3l1.5-6.4h20.8c5.2,0,7.9,1.9,7.9,5.8c0,0.8-0.1,1.7-0.3,2.6l-3.8,16c-0.6,2.7-1.9,4.8-3.8,6.2
		c-1.9,1.4-4.4,2.1-7.6,2.1h-20.9V427.8z"/>
	<path class="st0" d="M873.1,427.8l5.6-23.9h8.3l-1.3,5.3h13.2l-1.2,5.2h-13.2l-1.6,6.9h18.3l-1.5,6.5H873.1z M879.2,401.5l1.5-6.4
		h26.7l-1.5,6.4H879.2z"/>
	<path class="st0" d="M916.2,417.3l-2.4,10.5h-8.1l5.6-23.9h8.1l-1.8,7.4h11.1c0.7,0,1.1-0.1,1.4-0.4c0.3-0.3,0.5-0.8,0.7-1.5
		l1.5-6.4c0.1-0.3,0.1-0.5,0.1-0.7c0-0.4-0.1-0.6-0.3-0.7s-0.6-0.2-1.1-0.2h-19.2l1.5-6.4h22.5c1.8,0,3.1,0.3,3.9,0.9
		c0.8,0.6,1.2,1.5,1.2,2.7c0,0.3,0,0.6-0.1,1c-0.1,0.3-0.1,0.7-0.2,1.1l-2.5,10.8c-0.5,1.9-1.2,3.4-2.3,4.3s-2.8,1.4-5.1,1.4h-14.5
		V417.3z"/>
	<path class="st0" d="M945.2,427.8c-1.8,0-3.1-0.3-3.9-0.9c-0.8-0.6-1.2-1.5-1.2-2.7c0-0.6,0.1-1.3,0.3-2.2l4.9-21.3
		c0.5-1.9,1.2-3.4,2.3-4.3s2.8-1.4,5.1-1.4h17.9c1.8,0,3.1,0.3,3.9,0.9c0.8,0.6,1.2,1.5,1.2,2.7c0,0.3,0,0.7-0.1,1
		c-0.1,0.4-0.1,0.7-0.2,1.1l-4.9,21.3c-0.5,1.9-1.2,3.4-2.4,4.3c-1.1,0.9-2.8,1.4-5.1,1.4h-17.8V427.8z M966.8,403.4
		c0-0.2,0.1-0.3,0.1-0.4s0-0.2,0-0.3c0-0.7-0.6-1.1-1.9-1.1h-10c-0.7,0-1.2,0.1-1.5,0.4s-0.5,0.8-0.7,1.5l-3.8,16.3
		c-0.1,0.3-0.1,0.5-0.1,0.6c0,0.7,0.5,1,1.5,1h10c0.8,0,1.5-0.1,1.8-0.4c0.4-0.3,0.6-0.7,0.7-1.3L966.8,403.4z"/>
	<path class="st0" d="M996.2,427.8l2.4-10.7c0-0.2,0.1-0.3,0.1-0.4s0-0.2,0-0.3c0-0.5-0.5-0.8-1.5-0.8h-11.6l-2.8,12.2h-8.1
		l5.6-23.9h8.1l-1.5,6.3h11c0.8,0,1.3-0.1,1.6-0.3c0.3-0.2,0.5-0.7,0.7-1.4l1.3-5.3c0-0.2,0.1-0.3,0.1-0.4s0-0.2,0-0.3
		c0-0.4-0.1-0.6-0.4-0.8c-0.2-0.1-0.7-0.2-1.3-0.2h-19.1l1.5-6.4h22.8c1.8,0,3.2,0.3,4,0.9s1.2,1.5,1.2,2.7c0,0.3,0,0.6-0.1,0.9
		s-0.1,0.7-0.2,1l-1.6,7.1c-0.4,1.7-1.1,2.9-2.1,3.6s-2.2,1.1-3.4,1.2c1.1,0.1,2.1,0.3,2.9,0.7c0.8,0.4,1.2,1.1,1.2,2.1
		c0,0.2,0,0.3,0,0.5s0,0.4-0.1,0.6l-2.6,11.3L996.2,427.8L996.2,427.8z"/>
	<path class="st0" d="M1024.1,427.8h-8.1l6.1-26.3h-8.7l1.5-6.4h25.5l-1.5,6.4h-8.8L1024.1,427.8z"/>
	<path class="st0" d="M1037.4,427.8l7.6-32.7h8.1l-7.6,32.7H1037.4z"/>
	<path class="st0" d="M1060.6,427.8l-3.5-32.7h8.3l2,23.8l13.6-23.8h8l-19.4,32.7H1060.6z"/>
	<path class="st0" d="M1090.3,427.8c-1.8,0-3.1-0.3-3.9-0.9s-1.2-1.5-1.2-2.7c0-0.6,0.1-1.3,0.3-2.2l4.9-21.3
		c0.5-1.9,1.2-3.4,2.3-4.3c1.1-0.9,2.8-1.4,5.1-1.4h17.9c1.8,0,3.1,0.3,3.9,0.9s1.2,1.5,1.2,2.7c0,0.3,0,0.7-0.1,1
		c-0.1,0.4-0.1,0.7-0.2,1.1l-4.9,21.3c-0.5,1.9-1.2,3.4-2.4,4.3c-1.1,0.9-2.8,1.4-5.1,1.4h-17.8V427.8z M1111.9,403.4
		c0-0.2,0.1-0.3,0.1-0.4s0-0.2,0-0.3c0-0.7-0.6-1.1-1.9-1.1h-10c-0.7,0-1.2,0.1-1.5,0.4s-0.5,0.8-0.7,1.5l-3.8,16.3
		c-0.1,0.3-0.1,0.5-0.1,0.6c0,0.7,0.5,1,1.5,1h10c0.8,0,1.5-0.1,1.8-0.4c0.4-0.3,0.6-0.7,0.7-1.3L1111.9,403.4z"/>
	<path class="st0" d="M1119.7,427.8l1.5-6.4h19.2c0.6,0,1.1-0.1,1.4-0.3c0.3-0.2,0.5-0.6,0.7-1.3l1.1-4.5c0-0.1,0.1-0.3,0.1-0.5
		c0-0.6-0.5-0.9-1.4-0.9H1128c-1.5,0-2.5-0.3-3.2-0.8c-0.7-0.6-1-1.4-1-2.4c0-0.4,0.1-0.8,0.2-1.4l2-8.4c0.5-1.9,1.2-3.4,2.3-4.3
		c1.1-0.9,2.8-1.4,5.2-1.4h22.3l-1.4,6.2h-19.1c-0.6,0-1,0.1-1.2,0.3c-0.2,0.2-0.4,0.6-0.6,1.2l-1,4.3c0,0.1-0.1,0.2-0.1,0.3
		c0,0.1,0,0.2,0,0.3c0,0.5,0.4,0.7,1.2,0.7h14.4c1.5,0,2.6,0.3,3.2,0.9c0.7,0.6,1,1.4,1,2.4c0,0.4-0.1,0.9-0.2,1.4l-2.1,8.9
		c-0.5,1.9-1.2,3.4-2.3,4.3c-1.1,0.9-2.8,1.4-5.1,1.4L1119.7,427.8L1119.7,427.8z"/>
</g>
<path class="st0" d="M750,388.8c-0.9,0.6-1.9,1-3.1,1.3c-1.2,0.3-2.2,0.4-3.2,0.4c-1.1,0-2-0.1-2.9-0.4c-0.9-0.2-1.7-0.5-2.4-0.8
	c-0.8-0.3-1.5-0.6-2.2-0.8c-0.7-0.2-1.5-0.4-2.2-0.4c-1.1,0-2.2,0.1-3.3,0.4s-2.3,0.8-3.4,1.5l1-4.3c0.9-0.6,2-1,3.2-1.3
	s2.2-0.4,3.2-0.4c0.9,0,1.8,0.1,2.6,0.4s1.6,0.5,2.4,0.8c0.8,0.3,1.5,0.6,2.3,0.8c0.8,0.3,1.5,0.4,2.3,0.4c1.2,0,2.3-0.1,3.4-0.4
	c1.1-0.3,2.2-0.8,3.4-1.5L750,388.8z"/>
<g>
	<path class="st0" d="M244.5,511.1l-0.4-5.1h-13l-2.8,5.1h-7.8l18.7-32.7h10.6l2.8,32.7H244.5z M242.7,485l-8.7,15.6h9.8L242.7,485z
		"/>
	<path class="st0" d="M261.5,511.1c-1.8,0-3.1-0.3-3.9-0.9s-1.2-1.5-1.2-2.7c0-0.3,0-0.6,0.1-1c0-0.3,0.1-0.7,0.2-1.1l4.9-21.3
		c0.5-1.9,1.2-3.4,2.4-4.3c1.1-0.9,2.8-1.4,5.1-1.4h20.2l-1.5,6.5h-16.2c-0.9,0-1.4,0.1-1.7,0.4c-0.3,0.2-0.5,0.7-0.7,1.5l-3.8,15.9
		c0,0.2-0.1,0.3-0.1,0.4s0,0.2,0,0.4c0,0.4,0.1,0.6,0.4,0.8c0.2,0.2,0.7,0.2,1.4,0.2h16.4l-1.5,6.6H261.5z"/>
	<path class="st0" d="M292.6,511.1c-1.8,0-3.1-0.3-3.9-0.9s-1.2-1.5-1.2-2.7c0-0.3,0-0.6,0.1-1c0-0.3,0.1-0.7,0.2-1.1l4.9-21.3
		c0.5-1.9,1.2-3.4,2.4-4.3c1.1-0.9,2.8-1.4,5.1-1.4h20.2l-1.5,6.5h-16.2c-0.9,0-1.4,0.1-1.7,0.4c-0.3,0.2-0.5,0.7-0.7,1.5l-3.8,15.9
		c0,0.2-0.1,0.3-0.1,0.4s0,0.2,0,0.4c0,0.4,0.1,0.6,0.4,0.8c0.2,0.2,0.7,0.2,1.4,0.2h16.4l-1.5,6.6H292.6z"/>
	<path class="st0" d="M317.6,511.1l5.6-23.9h8.3l-1.3,5.3h13.2l-1.2,5.2H329l-1.6,6.9h18.3l-1.5,6.5H317.6z M323.7,484.8l1.5-6.4
		h26.7l-1.5,6.4H323.7z"/>
	<path class="st0" d="M350,511.1l1.5-6.4h19.2c0.6,0,1.1-0.1,1.4-0.3c0.3-0.2,0.5-0.6,0.7-1.3l1.1-4.5c0-0.1,0.1-0.3,0.1-0.5
		c0-0.6-0.5-0.9-1.4-0.9h-14.2c-1.5,0-2.5-0.3-3.2-0.8c-0.7-0.6-1-1.4-1-2.4c0-0.4,0.1-0.8,0.2-1.4l2-8.4c0.5-1.9,1.2-3.4,2.3-4.3
		s2.8-1.4,5.2-1.4h22.3l-1.4,6.2h-19.1c-0.6,0-1,0.1-1.2,0.3c-0.2,0.2-0.4,0.6-0.6,1.2l-1,4.3c0,0.1-0.1,0.2-0.1,0.3
		c0,0.1,0,0.2,0,0.3c0,0.5,0.4,0.7,1.2,0.7h14.4c1.5,0,2.6,0.3,3.2,0.9c0.7,0.6,1,1.4,1,2.4c0,0.4-0.1,0.9-0.2,1.4l-2.1,8.9
		c-0.5,1.9-1.2,3.4-2.3,4.3s-2.8,1.4-5.1,1.4L350,511.1L350,511.1z"/>
	<path class="st0" d="M390.4,511.1c-1.8,0-3.1-0.3-3.9-0.9s-1.2-1.5-1.2-2.7c0-0.6,0.1-1.3,0.3-2.2l4.9-21.3
		c0.5-1.9,1.2-3.4,2.3-4.3c1.1-0.9,2.8-1.4,5.1-1.4h17.9c1.8,0,3.1,0.3,3.9,0.9s1.2,1.5,1.2,2.7c0,0.3,0,0.7-0.1,1
		c-0.1,0.4-0.1,0.7-0.2,1.1l-4.9,21.3c-0.5,1.9-1.2,3.4-2.4,4.3c-1.1,0.9-2.8,1.4-5.1,1.4h-17.8V511.1z M412,486.7
		c0-0.2,0.1-0.3,0.1-0.4s0-0.2,0-0.3c0-0.7-0.6-1.1-1.9-1.1h-10c-0.7,0-1.2,0.1-1.5,0.4s-0.5,0.8-0.7,1.5l-3.8,16.3
		c-0.1,0.3-0.1,0.5-0.1,0.6c0,0.7,0.5,1,1.5,1h10c0.8,0,1.5-0.1,1.8-0.4c0.4-0.3,0.6-0.7,0.7-1.3L412,486.7z"/>
	<path class="st0" d="M441.4,511.1l2.4-10.7c0-0.2,0.1-0.3,0.1-0.4s0-0.2,0-0.3c0-0.5-0.5-0.8-1.5-0.8h-11.6l-2.8,12.2h-8.1
		l5.6-23.9h8.1l-1.5,6.3h11c0.8,0,1.3-0.1,1.6-0.3c0.3-0.2,0.5-0.7,0.7-1.4l1.3-5.3c0-0.2,0.1-0.3,0.1-0.4s0-0.2,0-0.3
		c0-0.4-0.1-0.6-0.4-0.8c-0.2-0.1-0.7-0.2-1.3-0.2H426l1.5-6.4h22.8c1.8,0,3.2,0.3,4,0.9s1.2,1.5,1.2,2.7c0,0.3,0,0.6-0.1,0.9
		s-0.1,0.7-0.2,1l-1.6,7.1c-0.4,1.7-1.1,2.9-2.1,3.6s-2.2,1.1-3.4,1.2c1.1,0.1,2.1,0.3,2.9,0.7c0.8,0.4,1.2,1.1,1.2,2.1
		c0,0.2,0,0.3,0,0.5s0,0.4-0.1,0.6l-2.6,11.3L441.4,511.1L441.4,511.1z"/>
	<path class="st0" d="M455.3,511.1l7.6-32.7h8.1l-7.6,32.7H455.3z"/>
	<path class="st0" d="M475.3,511.1c-1.8,0-3.1-0.3-3.9-0.9s-1.2-1.5-1.2-2.7c0-0.6,0.1-1.3,0.3-2.2l4.9-21.3
		c0.5-1.9,1.2-3.4,2.3-4.3c1.1-0.9,2.8-1.4,5.1-1.4h17.9c1.8,0,3.1,0.3,3.9,0.9s1.2,1.5,1.2,2.7c0,0.3,0,0.7-0.1,1
		c-0.1,0.4-0.1,0.7-0.2,1.1l-4.9,21.3c-0.5,1.9-1.2,3.4-2.4,4.3c-1.1,0.9-2.8,1.4-5.1,1.4h-17.8V511.1z M497,486.7
		c0-0.2,0.1-0.3,0.1-0.4s0-0.2,0-0.3c0-0.7-0.6-1.1-1.9-1.1h-10c-0.7,0-1.2,0.1-1.5,0.4s-0.5,0.8-0.7,1.5l-3.8,16.3
		c-0.1,0.3-0.1,0.5-0.1,0.6c0,0.7,0.5,1,1.5,1h10c0.8,0,1.5-0.1,1.8-0.4c0.4-0.3,0.6-0.7,0.7-1.3L497,486.7z"/>
	<path class="st0" d="M504.8,511.1l1.5-6.4h19.2c0.6,0,1.1-0.1,1.4-0.3c0.3-0.2,0.5-0.6,0.7-1.3l1.1-4.5c0-0.1,0.1-0.3,0.1-0.5
		c0-0.6-0.5-0.9-1.4-0.9H513c-1.5,0-2.5-0.3-3.2-0.8c-0.7-0.6-1-1.4-1-2.4c0-0.4,0.1-0.8,0.2-1.4l2-8.4c0.5-1.9,1.2-3.4,2.3-4.3
		s2.8-1.4,5.2-1.4h22.3l-1.4,6.2h-19.1c-0.6,0-1,0.1-1.2,0.3c-0.2,0.2-0.4,0.6-0.6,1.2l-1,4.3c0,0.1-0.1,0.2-0.1,0.3
		c0,0.1,0,0.2,0,0.3c0,0.5,0.4,0.7,1.2,0.7H533c1.5,0,2.6,0.3,3.2,0.9c0.7,0.6,1,1.4,1,2.4c0,0.4-0.1,0.9-0.2,1.4l-2.1,8.9
		c-0.5,1.9-1.2,3.4-2.3,4.3s-2.8,1.4-5.1,1.4L504.8,511.1L504.8,511.1z"/>
	<path class="st0" d="M564.4,500.6l-2.4,10.5h-8.1l5.6-23.9h8.1l-1.8,7.4h11.1c0.7,0,1.1-0.1,1.4-0.4c0.3-0.3,0.5-0.8,0.7-1.5
		l1.5-6.4c0.1-0.3,0.1-0.5,0.1-0.7c0-0.4-0.1-0.6-0.3-0.7s-0.6-0.2-1.1-0.2H560l1.5-6.4H584c1.8,0,3.1,0.3,3.9,0.9
		c0.8,0.6,1.2,1.5,1.2,2.7c0,0.3,0,0.6-0.1,1c-0.1,0.3-0.1,0.7-0.2,1.1l-2.5,10.8c-0.5,1.9-1.2,3.4-2.3,4.3s-2.8,1.4-5.1,1.4h-14.5
		V500.6z"/>
	<path class="st0" d="M606.4,511.1L606,506h-13l-2.8,5.1h-7.8l18.7-32.7h10.6l2.8,32.7H606.4z M604.7,485l-8.7,15.6h9.8L604.7,485z"
		/>
	<path class="st0" d="M639.8,511.1l2.4-10.7c0-0.2,0.1-0.3,0.1-0.4s0-0.2,0-0.3c0-0.5-0.5-0.8-1.5-0.8h-11.6l-2.8,12.2h-8.1
		l5.6-23.9h8.1l-1.5,6.3h11c0.8,0,1.3-0.1,1.6-0.3c0.3-0.2,0.5-0.7,0.7-1.4l1.3-5.3c0-0.2,0.1-0.3,0.1-0.4s0-0.2,0-0.3
		c0-0.4-0.1-0.6-0.4-0.8c-0.2-0.1-0.7-0.2-1.3-0.2h-19.1l1.5-6.4h22.8c1.8,0,3.2,0.3,4,0.9s1.2,1.5,1.2,2.7c0,0.3,0,0.6-0.1,0.9
		s-0.1,0.7-0.2,1L652,491c-0.4,1.7-1.1,2.9-2.1,3.6s-2.2,1.1-3.4,1.2c1.1,0.1,2.1,0.3,2.9,0.7c0.8,0.4,1.2,1.1,1.2,2.1
		c0,0.2,0,0.3,0,0.5s0,0.4-0.1,0.6l-2.6,11.3L639.8,511.1L639.8,511.1z"/>
	<path class="st0" d="M675.4,511.1L675,506h-13l-2.8,5.1h-7.8l18.7-32.7h10.6l2.8,32.7H675.4z M673.6,485l-8.7,15.6h9.8L673.6,485z"
		/>
	<path class="st0" d="M701.8,511.1l5.6-23.9h8.3l-1.3,5.3h13.2l-1.2,5.2h-13.2l-1.6,6.9h18.3l-1.5,6.5H701.8z M707.9,484.8l1.5-6.4
		H736l-1.5,6.4H707.9z"/>
	<path class="st0" d="M758.4,511.1h-24.1l7.6-32.7h8.1l-6.1,26.1h16L758.4,511.1z"/>
	<path class="st0" d="M777.6,511.1l5.6-23.8h8l-4.1,17.5h11.3c1.9,0,3.1-1,3.6-3.1l3.2-13.6c0.1-0.4,0.2-0.8,0.2-1.1
		c0-1.4-0.8-2-2.3-2h-19.3l1.5-6.4H806c5.2,0,7.9,1.9,7.9,5.8c0,0.8-0.1,1.7-0.3,2.6l-3.8,16c-0.6,2.7-1.9,4.8-3.8,6.2
		c-1.9,1.4-4.4,2.1-7.6,2.1h-20.8V511.1z"/>
	<path class="st0" d="M813.3,511.1l5.6-23.9h8.3l-1.3,5.3h13.2l-1.2,5.2h-13.2l-1.6,6.9h18.3l-1.5,6.5H813.3z M819.4,484.8l1.5-6.4
		h26.7l-1.5,6.4H819.4z"/>
	<path class="st0" d="M856.4,500.6l-2.4,10.5h-8.1l5.6-23.9h8.1l-1.7,7.4H869c0.7,0,1.1-0.1,1.4-0.4s0.5-0.8,0.7-1.5l1.5-6.4
		c0.1-0.3,0.1-0.5,0.1-0.7c0-0.4-0.1-0.6-0.3-0.7s-0.6-0.2-1.1-0.2H852l1.5-6.4H876c1.8,0,3.1,0.3,3.9,0.9c0.8,0.6,1.2,1.5,1.2,2.7
		c0,0.3,0,0.6-0.1,1c-0.1,0.3-0.1,0.7-0.2,1.1l-2.5,10.8c-0.5,1.9-1.2,3.4-2.3,4.3s-2.8,1.4-5.1,1.4h-14.5V500.6z"/>
	<path class="st0" d="M885.4,511.1c-1.8,0-3.1-0.3-3.9-0.9c-0.8-0.6-1.2-1.5-1.2-2.7c0-0.6,0.1-1.3,0.3-2.2l4.9-21.3
		c0.5-1.9,1.2-3.4,2.3-4.3s2.8-1.4,5.1-1.4h17.9c1.8,0,3.1,0.3,3.9,0.9c0.8,0.6,1.2,1.5,1.2,2.7c0,0.3,0,0.7-0.1,1
		c-0.1,0.4-0.1,0.7-0.2,1.1l-4.9,21.3c-0.5,1.9-1.2,3.4-2.4,4.3s-2.8,1.4-5.1,1.4h-17.8V511.1z M907,486.7c0-0.2,0.1-0.3,0.1-0.4
		s0-0.2,0-0.3c0-0.7-0.6-1.1-1.9-1.1h-10c-0.7,0-1.2,0.1-1.5,0.4s-0.5,0.8-0.7,1.5l-3.8,16.3c-0.1,0.3-0.1,0.5-0.1,0.6
		c0,0.7,0.5,1,1.5,1h10c0.9,0,1.5-0.1,1.8-0.4c0.4-0.3,0.6-0.7,0.7-1.3L907,486.7z"/>
	<path class="st0" d="M936.4,511.1l2.4-10.7c0-0.2,0.1-0.3,0.1-0.4s0-0.2,0-0.3c0-0.5-0.5-0.8-1.5-0.8h-11.6l-2.8,12.2h-8l5.6-23.9
		h8.1l-1.5,6.3h11c0.8,0,1.3-0.1,1.6-0.3c0.3-0.2,0.5-0.7,0.7-1.4l1.3-5.3c0-0.2,0.1-0.3,0.1-0.4s0-0.2,0-0.3c0-0.4-0.1-0.6-0.4-0.8
		c-0.2-0.1-0.7-0.2-1.3-0.2h-19.1l1.5-6.4h22.8c1.8,0,3.2,0.3,4,0.9s1.2,1.5,1.2,2.7c0,0.3,0,0.6-0.1,0.9s-0.1,0.7-0.2,1l-1.6,7.1
		c-0.4,1.7-1.1,2.9-2.1,3.6s-2.2,1.1-3.4,1.2c1.1,0.1,2.1,0.3,2.9,0.7c0.8,0.4,1.2,1.1,1.2,2.1c0,0.2,0,0.3,0,0.5s0,0.4-0.1,0.6
		l-2.6,11.3L936.4,511.1L936.4,511.1z"/>
	<path class="st0" d="M964.4,511.1h-8.1l6.1-26.3h-8.7l1.5-6.4h25.5l-1.5,6.4h-8.8L964.4,511.1z"/>
	<path class="st0" d="M977.3,511.1l5.6-23.9h8.3l-1.3,5.3h13.2l-1.2,5.2h-13.2l-1.6,6.9h18.3l-1.5,6.5H977.3z M983.4,484.8l1.5-6.4
		h26.7l-1.5,6.4H983.4z"/>
</g>
<g>
	<path class="st0" d="M640.4,288.1c-16-11-33.6-16.4-52-16.7c-27.6-0.5-55.3,1-82.9,1.7c-4.4,0.1-8.7,0.2-13.1,0.3
		c-6.8,0.1-12.6-0.7-13.5-9.3c-1.1-10.1,1-15.5,9.3-18.5c3.5-1.3,7.3-2.4,11-2.5c35.5-1.3,71.1-5.2,106.4,1.6
		c12.1,2.3,24.5,5.9,35.3,11.6c28.5,15,30.6,47.9,3.4,65.3c-12.2,7.9-27.3,12.7-41.8,15.8c-50.8,10.9-102.2,12.9-153.7,4.7
		c-10.2-1.6-20.4-4.8-30-8.8c-23.6-9.7-35.1-39.5-22-64.1c15.9-30,40.8-51.1,68.4-69.9c34.9-23.8,72-43.8,112.6-57
		c8.2-2.7,17-4.2,25.6-4.2c4.6,0,11.8,3.3,13.3,6.9c2.1,5.1,0.6,11.9-0.5,17.8c-0.3,1.4-4.8,2.8-7.4,3.1c-22.2,2-42.4,9.8-62.1,19.1
		c-36.5,17.3-70.9,37.9-102,63.4c-7.9,6.5-15.4,14-21.6,22c-14.1,18.2-9.8,33.2,12.6,39.6c16.5,4.8,34.2,7.4,51.4,8.2
		c41.2,1.9,82-2.9,122.3-11.5C621.3,304.2,633.3,300.8,640.4,288.1"/>
	<path class="st3" d="M815.3,300.3c28.7,5.6,51.1-7.2,68.3-26.2c23.3-25.9,43.6-54.2,64.7-81.8c10.1-13.1,19-27.1,28.6-40.5
		c2.5-3.4,5.2-7.8,8.8-9.1c5.6-2.1,12.3-3.2,17.9-2c2.6,0.6,5.6,7.7,5.2,11.6c-0.9,10.3-2,21-5.7,30.5
		c-18.9,48.6-46.2,92.8-78.4,134.1c-10,12.9-23.4,22.1-40.1,25.4C855.2,348.1,824.4,329.4,815.3,300.3"/>
	<path class="st3" d="M1050.3,272.9c1.8-12.8-0.6-16.2-14.2-15c-7.3,0.7-14.4,3.9-21.4,6.2c-6.6,2.1-12.9,5-19.6,6.8
		c-5.2,1.4-7.5-1.2-6.8-6.5c0.9-6.3,3.3-11.2,10-13.6c17.5-6.5,35.4-11.1,54.4-10c15.3,0.9,23.6,7.9,24.1,22.5
		c0.8,21.1,0.7,42.3,0.2,63.4c-0.1,3-4.3,6.7-7.5,8.4c-2.7,1.4-6.8,0.6-10.3,0.6c-6.7,0.1-10.5-2.6-9.9-9.7c0.2-2.2,0-4.4,0-8.2
		c-5,3.2-9.1,5.7-13,8.2c-14.8,9.6-31.1,14-48.8,11.6c-16.7-2.3-22.5-15.1-13.8-29.3c7.2-11.7,18.5-18.9,31.3-23.2
		C1019.4,280.3,1034.5,277.1,1050.3,272.9 M1050.7,287.8c-18.4,2.5-36.4,5.2-50.3,18.2c-3.3,3-4.4,8.3-6.7,13
		C1019.3,324.6,1049.5,307.9,1050.7,287.8"/>
	<path class="st0" d="M752.2,312.4c-5.6,3.5-9.9,6.2-14.2,8.8c-14,8.6-29.3,12.2-45.8,11c-7.6-0.6-14.7-2.7-18.1-10
		c-3.5-7.5-0.9-14.5,4.1-20.5c13.2-15.8,31.5-22.6,51.2-26.8c5.4-1.1,10.8-2.4,16.2-3.1c5.7-0.7,8.8-2.4,8.2-9.1
		c-0.6-6.9-4.3-9.2-10.2-8.3c-8.8,1.4-17.5,3.5-26.1,5.8c-5.3,1.4-10.1,4.3-15.4,5.7c-2.8,0.7-8.3,0.3-8.7-0.9
		c-1.1-3.2-1.5-8,0.4-10.3c3.2-4,7.9-8.6,12.7-9.5c17.1-2.9,34.4-5.6,51.6-6.1c13.1-0.4,20.6,7.5,21.1,20.3
		c0.8,20.9,0.6,41.8,0.3,62.7c0,2.4-3.3,6.3-5.7,6.9c-4.9,1.2-10.5,1.3-15.5,0.3c-2.4-0.5-4.8-4.2-5.9-6.9
		C751.4,320.2,752.2,317.1,752.2,312.4 M753.5,284.3c-17.4,1.7-33.3,5.1-47.1,14.7c-5.3,3.7-9.2,8.4-7.8,15.4
		C721.9,318.6,751.4,303,753.5,284.3"/>
	<path class="st3" d="M1135.1,188c-2.3,33.2-4.8,65.3-6.5,97.4c-0.5,10.6,1.2,21.3,1.7,32c0.2,3.6,0.2,7.3-0.3,10.9
		c-0.9,6.6-5.9,9.4-12,10.5c-6.4,1.1-12.1-0.9-14.5-6.8c-2.6-6.5-5.3-13.5-5.1-20.2c0.7-24.2,2.9-48.4,4-72.6
		c0.9-18.9,1.3-37.7,1.2-56.6c0-9.4,6.4-15.4,18.9-16c7.3-0.4,11.9,4.4,12.5,13.3C1135.3,182.9,1135.1,186,1135.1,188"/>
	<path class="st0" d="M862.8,281.4c-15.1,11.4-31.7,14.4-49.6,11.2c-2.5-0.5-5.2-3.6-6.4-6.1c-12.2-26.5-19.4-54.3-22.2-83
		c-0.4-4.1-0.1-9,2-12.3c2.6-4.2,6.9-8.5,11.4-10c2.3-0.8,8,3.7,9.9,7.1c8.2,14.6,15.7,29.6,23.4,44.5
		C840,249.7,847.8,267.4,862.8,281.4"/>
</g>
<g>
	<g>
		<g>
			<path id="SVGID_1_" class="st4" d="M48.3,126.6C69.9,104,97.2,90,125.8,78.4c44.9-18.1,92-25.9,130.4-26.9
				c31.2-0.2,52.2,1.8,72.5,8.9c2.2,0.8,4.4,1.6,6.6,2.6c31.5,13.6,43.7,36.2,37.8,69.4c-4.9,27.1-14.5,52.6-26.6,77.2
				c-26.7,54.1-57.7,105.6-100.7,149c-10.2,10.3-21.6,19.9-33.8,27.8c-22.7,14.7-46.7,14.5-70.5,1.4c-24.2-13.3-41.8-33.3-57-55.4
				C55,289.8,35.6,243,26.5,192.3C20.9,164.5,33.3,141.1,48.3,126.6z"/>
		</g>
		<g>
			<path id="SVGID_2_" class="st5" d="M48.3,126.6C69.9,104,97.2,90,125.8,78.4c44.9-18.1,92-25.9,130.4-26.9
				c31.2-0.2,52.2,1.8,72.5,8.9c2.2,0.8,4.4,1.6,6.6,2.6c31.5,13.6,43.7,36.2,37.8,69.4c-4.9,27.1-14.5,52.6-26.6,77.2
				c-26.7,54.1-57.7,105.6-100.7,149c-10.2,10.3-21.6,19.9-33.8,27.8c-22.7,14.7-46.7,14.5-70.5,1.4c-24.2-13.3-41.8-33.3-57-55.4
				C55,289.8,35.6,243,26.5,192.3C20.9,164.5,33.3,141.1,48.3,126.6z"/>
		</g>
	</g>
</g>
<g>
	<path class="st3" d="M97.9,304.9c8.7-0.5,17.1-0.6,25.4-1.4c14.1-1.3,26.2-7.2,37.9-14.5c19.7-12.3,34.9-29.1,49.5-46.5
		c32.1-38.4,61.7-78.6,88.8-120.6c5.4-8.4,12.1-16.3,19.1-23.6c6-6.2,13.9-11.1,23.2-7.2c9.5,4,11.3,12.7,11.1,21.7
		c-0.1,4.6-0.6,9.5-2.2,13.9c-25.8,70.6-61.7,136-109,195.3c-12.1,15.1-27.2,27-46.5,32.9c-21,6.5-40.9,4.4-59.6-7.1
		c-14.7-9.1-26.6-20.9-35-35.8c-0.8-1.4-1.5-2.9-2.2-4.4C98.3,306.8,98.2,306,97.9,304.9z"/>
	<path class="st6" d="M164.8,276c-13.3,10.5-29,18-47.4,19.1c-3.6,0.2-7.3-0.5-10.8,0.3c-9,1.9-13.3-2.6-16.7-9.8
		c-16.9-35-30.3-71.1-35-109.7c-0.9-7.1,1.1-15.2,3.9-21.9c4-9.5,14.7-10.5,21.5-2.6c5.3,6.1,9.9,12.8,14.1,19.6
		c15.6,25,30.6,50.5,46.6,75.3C147.9,256.6,156.6,265.7,164.8,276z"/>
</g>
</svg>
