<?xml version="1.0" encoding="utf-8"?>
<!-- Generator: Adobe Illustrator 21.1.0, SVG Export Plug-In . SVG Version: 6.00 Build 0)  -->
<svg version="1.1" id="Capa_1" xmlns="http://www.w3.org/2000/svg" xmlns:xlink="http://www.w3.org/1999/xlink" x="0px" y="0px"
	 viewBox="0 0 792 612" style="enable-background:new 0 0 792 612;" xml:space="preserve">
<style type="text/css">
	.st0{fill:#FF0000;}
	.st1{fill:none;stroke:#FF0000;stroke-width:17.3878;stroke-miterlimit:10;}
</style>
<g>
	<g>
		<path class="st0" d="M384.8,177c43.6,38.2,86.3,75.3,128.6,112.9c3.5,3.1,5.8,9.1,5.9,13.8c0.4,43.6,0.3,87.3,0.2,130.9
			c0,8.2-1.7,15.7-12.1,15.8c-30.7,0.2-61.4,0.1-94.2,0.1c0-20.9,0-40.8,0-60.6c0-30.2,0-30.3-30.5-30.1c-37.7,0.2-33.8-4.4-34,33.7
			c-0.1,16-0.3,32.1-0.1,48.1c0.1,6.9-2.6,9.4-9.6,9.3c-28.1-0.2-56.1-0.2-84.2,0.1c-9.3,0.1-12.8-4-12.8-13
			c0.2-45.4,0-90.8,0.3-136.3c0-3.9,2.1-8.9,5-11.3C292.6,252.7,338.1,215.4,384.8,177z"/>
		<path class="st0" d="M189.4,283.9c65.5-56.8,130.3-112.9,196.5-170.3c63.5,56.5,126.7,112.8,189.9,169.2
			c-7.5,11.2-17.2,12.6-27,8.7c-7.8-3.1-15.3-7.8-21.6-13.3c-42.1-36.6-83.7-73.6-125.6-110.5c-5-4.4-10.2-8.8-15.8-13.7
			c-42.6,35.4-84.7,70.4-126.8,105.4c-11.8,9.8-23.3,19.9-35.7,28.8C210.8,297.4,201.7,296.1,189.4,283.9z"/>
		<path class="st0" d="M530.1,228.5c-36.6-21.5-43.5-35.5-37.3-75.2c12.1,0,24.4,0,37.3,0C530.1,178.4,530.1,202.6,530.1,228.5z"/>
	</g>
	<ellipse class="st1" cx="392.3" cy="302" rx="280.2" ry="275.6"/>
</g>
</svg>
