<?xml version="1.0" encoding="utf-8"?>
<!-- Generator: Adobe Illustrator 21.1.0, SVG Export Plug-In . SVG Version: 6.00 Build 0)  -->
<svg version="1.1" id="Capa_1" xmlns="http://www.w3.org/2000/svg" xmlns:xlink="http://www.w3.org/1999/xlink" x="0px" y="0px"
	 viewBox="0 0 792 612" style="enable-background:new 0 0 792 612;" xml:space="preserve">
<style type="text/css">
	.st0{fill:none;stroke:#FFFFFF;stroke-width:18.1694;stroke-miterlimit:10;}
	.st1{fill:#FFFFFF;}
</style>
<g>
	<ellipse class="st0" cx="396" cy="301.2" rx="292.8" ry="288"/>
</g>
<g>
	<path class="st1" d="M197.9,407.6c22.7-18.1,45.4-36.1,68-54.3c14.2-11.4,27.8-23.5,46.3-27.9c14.8-3.5,29.5-4.4,44.2,0.2
		c18.1,5.6,36.3,11.1,54.4,16.8c13.2,4.2,20.5,15.9,17.8,28.1c-3.1,14.5-14.9,21.2-31.5,16.7c-15.4-4.1-30.6-9.1-45.9-13.9
		c-4.4-1.4-9.4-2.9-10.4,3c-0.4,2.1,4.2,6.5,7.3,7.5c15.4,5.2,30.9,10.1,46.7,14.1c21.8,5.5,35.4-1.9,44.4-22.3
		c1.2-2.7,3.8-5.2,6.4-6.7c24-13.8,48.2-27.3,72.3-40.8c22.3-12.6,37.3-7.5,47.3,15.9c0,3.8,0,7.6,0,11.4
		c-3.6,10.2-10.9,16.7-20.3,21.9c-39.9,22.1-79.6,44.5-119.1,67c-8.8,5-17.6,6.2-27.3,3.8c-27.6-6.7-55.3-13.4-83.1-19.5
		c-3.8-0.8-9.3,0.2-12.4,2.5c-16.7,12.1-33.1,24.7-49.1,37.7c-6.2,5-9.6,4.3-14.2-2c-13.5-18.3-27.6-36.2-41.5-54.2
		C197.9,410.9,197.9,409.3,197.9,407.6z"/>
	<path class="st1" d="M346.5,197c-12.3-2.6-13.3-3.8-13.3-16c0-12.5-0.1-25,0-37.5c0.1-8.1,3.3-11.6,11.3-11.6
		c54.6-0.1,109.3-0.1,163.9,0c7.9,0,11.4,3.4,11.5,11.4c0.2,13.9,0,27.7,0.1,41.6c0.1,8.5-4.9,11.4-13.6,11.4c0,3.2,0,6,0,8.9
		c0,27.7,0,55.5,0,83.2c0,9.9-3.1,13.1-13.2,13.1c-44.3,0.1-88.6,0.1-132.9,0c-10.6,0-13.8-3.4-13.8-14.4
		C346.5,257.2,346.5,227.3,346.5,197z M353.1,176.3c49.7,0,98.4,0,147.2,0c0-8.6,0-16.5,0-24.4c-49.4,0-98.1,0-147.2,0
		C353.1,160.3,353.1,168.1,353.1,176.3z M426.8,219.9c6.2,0,12.5,0,18.7,0c5.7,0,9.9-2.4,9.7-8.4c-0.2-5.3-4.2-7.8-9.5-7.8
		c-12.7,0-25.5,0-38.2,0c-5.4,0-9.2,2.3-9.3,7.9c-0.1,5.6,3.7,8.1,9.1,8.1C413.8,220,420.3,219.9,426.8,219.9z"/>
</g>
</svg>
