<?xml version="1.0" encoding="utf-8"?>
<!-- Generator: Adobe Illustrator 21.1.0, SVG Export Plug-In . SVG Version: 6.00 Build 0)  -->
<svg version="1.1" id="Capa_1" xmlns="http://www.w3.org/2000/svg" xmlns:xlink="http://www.w3.org/1999/xlink" x="0px" y="0px"
	 viewBox="0 0 792 612" style="enable-background:new 0 0 792 612;" xml:space="preserve">
<style type="text/css">
	.st0{fill:#FFFFFF;}
</style>
<path class="st0" d="M124.8,108.7c6.3-5.6,13.3-8.6,21.2-9.5c3.2-0.4,6.5-0.4,9.7-0.4c164.1,0,328.2,0,492.4,0
	c8.8,0,17.3,0.7,25.4,6.4c-90.7,87.4-181,174.4-271.8,261.9C309.4,280.9,217.2,194.9,124.8,108.7z"/>
<path class="st0" d="M137.7,511.7c59.4-57.2,118.7-114.5,178.5-172.1c1.8,1.6,3.5,3.1,5.1,4.6c21.7,20.2,43.4,40.5,65.1,60.7
	c10.9,10.1,20.3,10,31-0.2c21.8-20.9,43.6-41.9,65.4-62.9c1.5-1.4,3-2.8,5.1-4.8c61.5,57.4,122.9,114.7,185.4,173.1
	c-6,1.7-10.9,3.5-15.9,4.5c-3.3,0.7-6.8,0.4-10.2,0.4c-163.6,0-327.2,0-490.8-0.1c-6.1,0-12.3-1-18.4-1.6
	C137.9,512.8,137.8,512.2,137.7,511.7z"/>
<path class="st0" d="M111.2,483.6c-2.4-7.6-3.7-318.8-1.6-336.1c59.5,55.4,118.7,110.5,178.3,166
	C228.9,370.3,170.3,426.7,111.2,483.6z"/>
<path class="st0" d="M693,139.1c0,113,0,224.5,0,337.5c-59.7-55.7-118.5-110.6-177.9-166.1C574.2,253.5,633.1,196.8,693,139.1z"/>
</svg>
