<?xml version="1.0" encoding="utf-8"?>
<!-- Generator: Adobe Illustrator 21.1.0, SVG Export Plug-In . SVG Version: 6.00 Build 0)  -->
<svg version="1.1" id="Capa_1" xmlns="http://www.w3.org/2000/svg" xmlns:xlink="http://www.w3.org/1999/xlink" x="0px" y="0px"
	 viewBox="0 0 792 612" style="enable-background:new 0 0 792 612;" xml:space="preserve">
<style type="text/css">
	.st0{fill:#FFFFFF;}
</style>
<path class="st0" d="M401.8,36.7c46,0.6,84.9,10.4,119.7,33.5c32.4,21.5,54.9,51.1,67.4,87.8c19.2,56.5,17.1,112.8-3.6,168.6
	c-17.1,46-41.8,87.8-70,127.7c-26.7,37.7-56.3,73-88.6,106.1c-1.5,1.5-2.9,3-4.5,4.3c-10.3,9-22,9.4-31.8-0.1
	c-10.9-10.5-21.2-21.6-31.3-32.9c-40.9-46-77.7-95.1-106.8-149.6c-19-35.6-35-72.6-39.6-113c-6.9-59.8,2.1-116.4,40.9-165
	c24.7-31,57.6-49.7,95.6-59.8c8-2.2,16.2-4,24.5-5.1C384.5,37.8,395.5,37.2,401.8,36.7z M406.9,509.4C428,482.9,449,458,468.5,432
	c29.1-39,53.9-80.6,70.1-126.9c13.5-38.8,15.7-78.2,5.5-118c-9.1-35.2-28.5-62.9-61-80.2C445.2,86.8,405.1,84,363.9,93.6
	c-29.3,6.9-54.4,21.3-72.7,45.7c-25.5,34-31.2,73.4-28.5,114.4c2.1,30.9,12.7,59.7,25.9,87.5c22.4,47.1,52.3,89.4,85.3,129.5
	C384.2,483.3,395,495.5,406.9,509.4z"/>
<path class="st0" d="M507,231.6c-0.4,55.9-45.8,101-101.2,100.6c-55.5-0.3-100.6-45.7-100.4-100.9c0.2-55.3,46.2-101.1,101.4-100.7
	C462.3,131,507.5,176.5,507,231.6z M468.3,231.2c-0.2-34.2-28.3-62-62.4-61.9c-34.2,0.1-63.3,28.9-63,62.3
	c0.3,34.1,29.7,63.3,63.7,63.1C440.1,294.5,468.5,265.4,468.3,231.2z"/>
</svg>
