<?xml version="1.0" encoding="utf-8"?>
<!-- Generator: Adobe Illustrator 22.1.0, SVG Export Plug-In . SVG Version: 6.00 Build 0)  -->
<svg version="1.1" id="Capa_1" xmlns="http://www.w3.org/2000/svg" xmlns:xlink="http://www.w3.org/1999/xlink" x="0px" y="0px"
	 viewBox="0 0 792 612" style="enable-background:new 0 0 792 612;" xml:space="preserve">
<style type="text/css">
	.st0{fill:none;stroke:#FFFFFF;stroke-width:18.3708;stroke-miterlimit:10;}
	.st1{fill:#FFFFFF;}
</style>
<g>
	<ellipse class="st0" cx="399.2" cy="304" rx="296.1" ry="291.2"/>
	<g>
		<path class="st1" d="M415.4,302.2c-2.8,6.6-6.1,12.7-8.1,19.3c-1.3,4.5-0.7,9.5-0.9,14.3c0,0.6,0.5,1.5,1,1.8
			c4.6,2.5,6.4,7.2,6.9,11.6c1.1,9.1,7.1,12.1,14.4,15.1c18,7.3,35.6,15.5,53.7,22.7c16,6.4,21.4,20,24.9,34.7
			c3.1,13,4.7,26.3,6.9,39.4c0.9,5.2-0.5,6.6-5.8,6.6c-95.8,0-191.7,0-287.5,0c-6.4,0-7.1-0.4-6.5-6.6c1.6-17.5,4.4-34.7,10.4-51.3
			c4.4-12.1,12.6-19.7,24.5-24.4c13.3-5.3,26.3-11.6,39.5-17.2c5.7-2.4,11.5-4.4,17.3-6.5c3.2-1.2,5.2-3.1,6.1-6.6
			c1-3.9,2.4-7.7,3.8-11.5c0.5-1.4,1.2-3.2,2.3-3.8c5.5-2.9,4.3-8,4-12.5c-0.4-6.4-2.2-12.4-5.9-17.7c-3.9-5.6-3.6-12.4-5.3-18.7
			c-0.6-2.5-2.1-4.9-3.7-7c-3.7-4.7-4.3-10.4-5.1-15.9c-0.4-3-0.1-6.1-0.2-9.1c-0.1-2.7,0.7-4.8,3.3-6.3c0.8-0.5,1.3-2.3,1.3-3.5
			c0.1-7.1,0.1-14.2,0.1-21.3c-0.2-18.2,8.3-30.4,24.9-37.8c11.1-5,22.5-8.2,34.5-9.3c4.1-0.4,8.4,0.2,12.5-0.1
			c1.4-0.1,3.4-1.1,4.1-2.3c13.1-23.7,33-39.5,57.8-49.3c25-9.9,50.8-11.3,77-5.2c26.9,6.3,49.6,19.8,66.4,41.9
			c12.4,16.2,19.1,34.7,19.2,55.4c0.1,25-8.8,46.2-25.6,64.5c-10.4,11.4-22.6,20.1-36.5,26.5c-1.3,0.6-2.6,1.5-3.6,2.6
			c-12.3,13-24.5,26.1-36.8,39.1c-4,4.2-7.9,8.5-12,12.5c-4.8,4.8-11,4.8-14.8-0.1c-1.1-1.4-1.7-3.4-1.7-5.2
			c-0.2-11.2-0.3-22.3-0.1-33.5c0-3.6-0.9-4.9-4.7-5.5c-11.7-1.8-23.1-4.8-33.8-10.4C427.7,308.5,421.7,305.4,415.4,302.2z
			 M490.2,336.9c1.1-0.7,1.4-0.9,1.7-1.1c10.6-11.3,21.1-22.6,31.9-33.7c2.4-2.5,5.3-4.8,8.4-6.2c15-7,27.9-16.5,37.8-30
			c8.8-12,14.1-25.3,14.9-40.1c1.1-21.8-6.7-40.6-21.7-56.2c-10.3-10.7-22.5-18.6-36.7-23.8c-12.5-4.6-25.2-7.2-38.3-7
			c-9.2,0.2-18.7,1.4-27.6,3.5c-26.1,6.3-47,20.3-60.9,43.9c-1.7,3-1.7,4.3,1.5,6.1c4.8,2.7,9.7,5.7,13.6,9.5
			c5.9,5.8,6.9,13.8,7.1,21.8c0.1,9.4,0,18.8,0,28.1c0.4-0.2,0.8-0.4,1.1-0.5c1.2,2,3.1,3.8,3.5,5.9c1.3,7.9,0.1,15.7-3.1,22.8
			c-1.4,3.1-0.7,4.2,1.7,5.6c4.6,2.6,9.1,5.4,13.7,7.9c13.1,7.2,27.3,10.3,42,11.3c6.1,0.4,9.6,4.1,9.6,10.3
			C490.1,322.1,490.2,329.2,490.2,336.9z"/>
		<path class="st1" d="M487.5,232.3c-6.4,0-11.9-5.5-11.9-11.8c0.1-6.5,5.4-11.8,11.7-11.8c6.6,0,12,5.5,11.9,12.2
			C499.2,227.2,494,232.3,487.5,232.3z"/>
		<path class="st1" d="M459.8,220.7c0,6.5-5.2,11.6-11.7,11.6c-6.4,0-11.8-5.4-11.8-11.8c0-6.1,5.8-11.8,12-11.7
			C454.8,208.8,459.9,214.1,459.8,220.7z"/>
		<path class="st1" d="M526.4,232.2c-6.4-0.2-11.9-5.8-11.6-12c0.2-6.4,5.9-11.7,12.2-11.5c6.2,0.2,11.7,5.9,11.5,12.1
			C538.3,227.2,532.8,232.4,526.4,232.2z"/>
	</g>
</g>
</svg>
