<?xml version="1.0" encoding="utf-8"?>
<!-- Generator: Adobe Illustrator 22.1.0, SVG Export Plug-In . SVG Version: 6.00 Build 0)  -->
<svg version="1.1" id="Capa_1" xmlns="http://www.w3.org/2000/svg" xmlns:xlink="http://www.w3.org/1999/xlink" x="0px" y="0px"
	 viewBox="0 0 792 612" style="enable-background:new 0 0 792 612;" xml:space="preserve">
<style type="text/css">
	.st0{fill:#FFFFFF;}
</style>
<g>
	<path class="st0" d="M88.9,302.2C88.9,136.4,225.5,3.1,396.2,4.1c159.8,1,299.6,127.5,299.6,298.4c0,166.3-134.6,298.6-304.1,298.2
		C218,600.4,88.8,461.8,88.9,302.2z M107.6,301.9c-2.5,149.2,123.1,280.6,283.5,280.9c158.4,0.3,286.3-125.1,286.4-280.4
		c0.1-158.2-133.3-280.2-284.5-280.5C236.9,21.6,105.7,149.1,107.6,301.9z"/>
	<path class="st0" d="M491.1,425.5c0,24.7-0.1,24.4-24.6,31.5c-40.3,11.7-80.9,12.1-121.8,4.9c-12.5-2.2-25.1-4.3-37.3-7.6
		c-10-2.7-13.6-10.3-12.7-20.6c1.3-13.8,0.8-27.9,3.2-41.5c4.4-25.7,19.2-45.5,40.6-60.2c3.8-2.6,11.6-3.2,15.8-1.1
		c26,12.7,51.5,14.1,76.9-0.9c6.9-4.1,12.4-1.3,18,2.9c27.3,20.6,40.7,48,41.9,81.5C491.2,418.1,491.1,421.8,491.1,425.5z"/>
	<path class="st0" d="M323.2,256.6c-4.1,21.7,1,40.5,13.5,57c-9.8,8.8-20.6,16.1-28,25.9c-9.1,12.1-15.9,26-22.7,39.6
		c-2.8,5.7-5.5,9.2-12.1,8c-22.6-4-45.3-7.7-67.8-12.2c-8.5-1.7-12.3-7.7-11.6-16.6c1.1-14.5,0.2-29.3,2.5-43.6
		c4.3-27.3,19.6-48.3,43.1-63.1c3.3-2.1,9.8-2.6,13.1-0.8c21.1,11.8,42.7,14.9,65.5,5.9C319.6,256.5,320.7,256.7,323.2,256.6z"/>
	<path class="st0" d="M463,257.6c13.8,1.5,26.1,4.5,38.2,3.7c9.5-0.6,19.3-4.9,28-9.4c7.6-4,13-3.5,19.8,1.2
		c27.9,19.3,40.6,46.1,41.6,79c0.3,9.2-0.2,18.3,0.2,27.5c0.3,7.7-3.4,13.2-10.2,14.6c-22.8,4.9-45.8,8.9-68.8,13.1
		c-6.6,1.2-10-2-12-8.2c-7.7-23.6-21.6-43-42-57.8c-4.3-3.1-8.8-6.8-4.8-12.6C463.5,293.2,465.7,276.2,463,257.6z"/>
	<path class="st0" d="M390.5,326.2c-23.7,3.3-54.6-23.8-54.2-51.3c0.5-35.8,23.8-58.3,55.6-58.9c31.3-0.6,57.5,24.7,57.7,54.8
		C449.8,301.8,424,326,390.5,326.2z"/>
	<path class="st0" d="M493.3,246.7c-32.1,0-56.5-24-56.1-55.3c0.3-30.1,25.9-55,56.4-54.9c31,0.1,55.7,25,55.7,56.2
		C549.2,223.7,525.4,246.7,493.3,246.7z"/>
	<path class="st0" d="M292,246.7c-31.6,0-56.2-24.1-55.9-54.8c0.3-30.4,25.3-55.2,56.1-55.5c30.9-0.3,56.1,25,56,56.2
		C348,223.9,324.2,246.8,292,246.7z"/>
</g>
</svg>
