<?xml version="1.0" encoding="utf-8"?>
<!-- Generator: Adobe Illustrator 21.1.0, SVG Export Plug-In . SVG Version: 6.00 Build 0)  -->
<svg version="1.1" id="Capa_1" xmlns="http://www.w3.org/2000/svg" xmlns:xlink="http://www.w3.org/1999/xlink" x="0px" y="0px"
	 viewBox="0 0 792 612" style="enable-background:new 0 0 792 612;" xml:space="preserve">
<style type="text/css">
	.st0{fill:none;stroke:#FF0000;stroke-width:18.1694;stroke-miterlimit:10;}
	.st1{fill:#FF0000;}
</style>
<g>
	<ellipse class="st0" cx="396" cy="301.2" rx="292.8" ry="288"/>
	<g>
		<path class="st1" d="M432.9,401.7c-1.1-0.9-2-1.6-2.9-2.2c-24.2-15.8-48.6-31.3-72.5-47.4c-11.8-8-20-18.6-17.6-33.9
			c1.4-9.5,5.9-17.9,11.2-25.8c16.6-24.6,33.5-49,50.2-73.5c0.8-1.2,1.6-2.5,2.8-4.3c-10.1-2.2-19.8-3.8-29.2-6.5
			c-8-2.3-14.6-1-21.8,3c-17.9,9.9-36.2,19.1-54.5,28.3c-3.8,1.9-8.3,2.9-12.5,3.4c-7.7,0.9-12.9-4.6-10.5-11.8
			c1.5-4.7,4.7-9,8-12.9c3-3.6,6.9-6.5,10.7-9.4c16.9-12.9,34-25.7,50.8-38.7c6.2-4.8,12.8-6.5,20.5-4.8c22.8,5,45.7,9.8,68.4,14.9
			c3.4,0.8,6.8,2.5,9.8,4.4c10,6.4,19.7,13.4,29.9,19.6c5,3.1,8.4,7.1,10.7,12.4c8.5,19.2,17.3,38.2,25.6,57.4
			c1.6,3.7,3.6,5.1,7.7,5.4c18.5,1.4,37.1,3.1,55.6,4.9c3,0.3,6,1.4,8.8,2.7c4.6,2.2,6.1,6.3,6.1,11.1c0,4.4-2.7,7.7-6.7,8.7
			c-7.7,2-15.6,4.1-23.4,4.6c-19.8,1.1-39.7,1.1-59.6,2c-8.9,0.4-15.3-3.5-19.1-10.6c-5.9-11.1-10.8-22.8-16.2-34.3
			c-1-2.2-2.1-4.5-3.6-7.7c-15.1,23.8-29.7,46.8-44.6,70.2c1.4,1,2.6,1.9,3.8,2.8c18.7,12.6,37.4,25.2,56.1,37.9
			c13.3,9,16.5,21,9,35c-17.4,32.5-34.7,65-52.5,97.2c-3.8,6.8-9.6,12.6-15.2,18.1c-4.7,4.6-10.9,5.9-17.1,2.6
			c-6-3.1-6.8-8.8-6.6-14.7c0.4-10.9,4.4-20.8,8.5-30.7C411.5,453.4,422.1,427.8,432.9,401.7z"/>
		<path class="st1" d="M323.7,350.8c8,14.9,21.9,23.5,34.8,33.6c-8.5,12.1-16.5,24.3-25.4,35.9c-5.5,7.1-13.8,9.7-23,9.1
			c-24-1.6-48.1-2.9-72.1-4.8c-11.1-0.8-22-2.6-33-4.1c-1.9-0.3-3.7-1.3-5.5-2.1c-5.4-2.6-8.6-6.7-8.7-12.7
			c-0.1-6,2.5-10.9,7.9-13.1c5.9-2.4,12.3-4.4,18.6-4.9c26.6-2.1,53.2-3.5,79.7-5.4c2-0.1,4.5-1.5,5.8-3.1
			C309.9,369.9,316.7,360.4,323.7,350.8z"/>
		<path class="st1" d="M496.8,105.1c21.5-0.2,39,16.7,39.6,38.3c0.5,20.8-17.8,39-39.3,39c-21.4,0-39.2-17.4-39.4-38.6
			C457.4,122.8,475.1,105.3,496.8,105.1z"/>
	</g>
</g>
</svg>
