<?xml version="1.0" encoding="utf-8"?>
<!-- Generator: Adobe Illustrator 21.1.0, SVG Export Plug-In . SVG Version: 6.00 Build 0)  -->
<svg version="1.1" id="Capa_1" xmlns="http://www.w3.org/2000/svg" xmlns:xlink="http://www.w3.org/1999/xlink" x="0px" y="0px"
	 viewBox="0 0 400 400" style="enable-background:new 0 0 400 400;" xml:space="preserve">
<style type="text/css">
	.st0{fill:none;}
	.st1{opacity:5.000000e-02;}
	.st2{fill:#FFFFFF;}
</style>
<g>
	<g>
		<ellipse class="st0" cx="198.4" cy="199.2" rx="186.2" ry="183.1"/>
	</g>
	<g>
		<ellipse class="st0" cx="198.4" cy="199.2" rx="186.2" ry="183.1"/>
	</g>
</g>
<g class="st1">
	<path class="st2" d="M225.1,75.3c52.6,9.1,104.3,58.2,103.7,125.9c-0.5,68.9-53.9,115.6-103.8,124.1c0-0.8,0-1.6,0-2.4
		c0-27,0-54,0-81.1c0-11.2,7-18.1,18.4-18.1c4.9,0,10,0,14.9,0c1.4,0,2.1,0.3,2.5,1.9c2.6,9.8,12.4,16.2,22.3,14.8
		c10.5-1.5,17.9-10.1,17.7-20.5c-0.2-9.3-7.2-17.5-16.7-19.3c-9.3-1.8-18.7,3.2-22.4,11.9c-0.8,1.8-1.6,2.3-3.5,2.2
		c-5.4-0.1-10.7,0-16.1,0c-14.5,0-26.3,11.5-26.3,25.8c0,28.1,0,56.1,0,84.2c0,1.9-0.5,2.5-2.4,2.6c-1.9,0-3.7,0.3-5.8,0.4
		c0-0.9,0-1.6,0-2.3c0-34.1,0-68.2,0-102.3c0-20.7,0-41.4,0-62c0-15.6-11.4-26.8-27.3-26.9c-5.1,0-10.4-0.1-15.5,0
		c-1.5,0-2.3-0.3-3-1.9c-3.4-8.4-12.1-13.5-21.2-12.5c-8.9,1-16.2,7.8-17.8,16.5c-1.9,10.3,5,20.7,15.3,23.1
		c10.6,2.5,21.6-3.7,24.5-14c0.2-0.7,0.4-1.4,0.5-2.1c6.8,0,13.5-0.4,20,0.1c8.6,0.7,15.1,7.9,15.1,16.5c0.1,19.1-0.1,38.3-0.1,57.4
		c0,17.7,0.1,35.4,0.1,53.1c0,18.4,0,36.8,0,55.1c0,0.7,0,1.3,0,2.1c-2.7,0-5.4,0-8.2,0c0-1.2,0-2.1,0-3c0-43.1,0-86.1,0-129.2
		c0-11.4-6.1-20.8-16.5-24.6c-3.2-1.2-6.8-1.9-10.2-1.9c-29-0.1-58-0.1-87.1-0.1c-1.1,0-2.2,0-3.6,0c7.8-28.9,23.3-52.4,47.2-70.3
		c28.3-21.2,60.4-29.2,95.8-25.4c0,1,0,1.9,0,2.6c0,19.3,0,38.4,0,57.7c0,15.6,11.4,26.8,27.3,26.8c5.4,0,10.6,0,16,0
		c1.2,0,1.9,0.3,2.3,1.5c3.5,9.1,13.2,14.4,22.8,12.6c10-2,17-10.5,16.6-20.5c-0.2-9.7-7.9-17.9-18.1-19.4
		c-9.4-1.3-18.9,4.7-21.8,13.9c-0.7,2.2-1.5,2.8-3.8,2.7c-5.1-0.2-10.2,0-15.3-0.1c-9.3-0.1-16.8-7.2-16.8-16.3
		c-0.1-19.6,0-39.1,0-58.6C224.9,76,225.1,75.6,225.1,75.3z"/>
	<path class="st2" d="M162.8,322.8c-55.6-14.1-104.7-73.3-92-144.6c0.7,0,1.2-0.1,1.9-0.1c30,0,60.1,0,90,0c7.1,0,12.5,2.7,16,8.8
		c1.8,2.8,2.1,6.1,2.1,9.4c0,40.9,0,81.9,0,122.9c0,2.5,0,5,0,7.8c-2.8-0.4-5.4-0.9-7.9-1.4c-0.3-0.1-0.7-0.5-0.8-1s0-1.2,0-1.8
		c0-31.4,0-62.8,0-94.1c0-15.3-11.5-26.5-27-26.6c-5.3,0-10.6-0.1-15.9,0c-1.5,0-2.2-0.3-2.7-1.8c-3.6-8.8-12.9-13.9-22-12.5
		c-9.6,1.6-16.7,9.3-17.4,18.5c-0.5,9.6,5.5,18.2,14.9,20.8c10.8,3.1,22.2-3.3,25.2-14.1c0.4-1.5,1-2,2.5-2c5.4,0.1,10.7,0,16.1,0.1
		c9.6,0.1,17,7.3,17.1,16.7c0,31.2,0,62.4,0,93.5C162.9,322,162.9,322.4,162.8,322.8z"/>
	<path class="st2" d="M153.6,140.1c0,6.5-4.4,10.9-10.7,10.9c-6.2,0-11.3-4.9-11.3-11s5.1-10.9,11.4-10.9
		C149.2,129.1,153.6,133.6,153.6,140.1z"/>
	<path class="st2" d="M291.5,220.3c0,6.1-4.9,10.9-11.3,11c-5.5,0.1-11.2-4.8-10.8-10.4c0.4-7,4.4-11.7,10.8-11.7
		C286.4,209.3,291.5,214.2,291.5,220.3z"/>
	<path class="st2" d="M269.6,154.5c-1-6.2,5.7-10.9,10.7-10.8c6.2,0.1,11.3,4.9,11.3,11c0,6-5,10.9-11.2,11
		C275.4,166,268.6,161.7,269.6,154.5z"/>
	<path class="st2" d="M118.3,207.8c0,6.6-4.3,11-10.6,11c-6.3,0-11.4-4.8-11.4-11.2c0-6,5-10.8,11.2-10.8
		C113.9,196.8,118.3,201.3,118.3,207.8z"/>
</g>
</svg>
