<?xml version="1.0" encoding="utf-8"?>
<!-- Generator: Adobe Illustrator 21.1.0, SVG Export Plug-In . SVG Version: 6.00 Build 0)  -->
<svg version="1.1" id="Capa_1" xmlns="http://www.w3.org/2000/svg" xmlns:xlink="http://www.w3.org/1999/xlink" x="0px" y="0px"
	 viewBox="0 0 792 612" style="enable-background:new 0 0 792 612;" xml:space="preserve">
<style type="text/css">
	.st0{fill:#FFFFFF;}
</style>
<g>
	<path class="st0" d="M167.7,112c14.8,14.8,29.2,29.3,43.7,43.7c23.3,23.3,46.6,46.7,70,69.9c2.5,2.5,3,4.5,2.1,8
		c-5.3,19.6-1.9,37.6,11.7,53.1c31.6,35.9,65.2,69.8,101.2,101.3c15.5,13.6,33.5,16.8,53.1,11.6c2.8-0.7,4.8-1.1,7.2,1.4
		c37.4,37.6,75,75.1,112.5,112.7c0.5,0.5,0.9,0.9,1.6,1.7c-6,6.3-13.5,10.2-21.5,12.9c-19.6,6.7-39.8,6.9-60.1,4.4
		c-42.8-5.1-80.9-22.3-116.3-45.9C302.1,439.4,243.3,379.9,196,309.2c-22.2-33.2-38.6-68.9-44.6-108.8c-3.4-22.5-4-44.8,3.4-66.7
		C157.4,125.7,161.3,118.4,167.7,112z"/>
	<path class="st0" d="M302.8,201.1C266.5,164.8,228.7,127,190.6,89c0.6-0.7,1.5-1.8,2.5-2.8c13.1-13.1,26.1-26.2,39.2-39.2
		c9.5-9.5,19.1-9.5,28.5-0.1c28.3,28.3,56.6,56.6,84.9,84.9c9.7,9.7,9.8,19.3-0.1,28.9C331.4,174.4,316.9,187.8,302.8,201.1z"/>
	<path class="st0" d="M594,492.8c-38.3-38.2-76.1-75.9-114.2-114c3-2.7,6.1-5.4,9-8.2c11.1-11,22-22.1,33.1-33.1
		c10.1-10,19.6-10,29.7,0.1c28.1,28.1,56.1,56.2,84.2,84.2c9.8,9.8,9.8,19.1,0.1,28.8C621.9,464.7,608,478.7,594,492.8z"/>
</g>
</svg>
